<svg width="126" height="209" viewBox="0 0 126 209" fill="none" xmlns="http://www.w3.org/2000/svg">
<path d="M90.1041 89.1638L61.0758 105.544C60.9187 105.633 60.8215 105.799 60.8215 105.98V138.002C60.8215 138.384 61.2335 138.625 61.5668 138.438L91.0625 121.83C91.2222 121.74 91.3199 121.57 91.3172 121.387L90.8498 89.5919C90.8442 89.2125 90.4346 88.9773 90.1041 89.1638Z" fill="#3975FF"/>
<path d="M109.429 105.089C109.429 131.364 88.6103 152.607 63.0001 152.607C37.3899 152.607 16.5715 131.364 16.5715 105.089C16.5715 78.8138 37.3899 57.5713 63.0001 57.5713C88.6103 57.5713 109.429 78.8138 109.429 105.089Z" stroke="white" stroke-width="3"/>
<path d="M61.971 74.2285L36.6042 90.0346C36.3111 90.2172 36.133 90.538 36.133 90.8833V121.838M61.971 74.2285L90.5528 90.3282M61.971 74.2285V60.4287M90.5528 90.3282V121.838M90.5528 90.3282L62.4802 106.141C62.1656 106.318 61.971 106.651 61.971 107.012V138.857M90.5528 121.838L61.971 138.857M90.5528 121.838L102.214 129.197M61.971 138.857L36.133 121.838M36.133 121.838L23.7856 129.197" stroke="white" stroke-width="3" stroke-linecap="round"/>
<path d="M64.664 51.5063L63.416 52.3384L64.664 51.5063C63.8724 50.3189 62.1275 50.3189 61.3358 51.5063L62.5839 52.3384L61.3358 51.5063L53.5558 63.1764C52.6697 64.5055 53.6225 66.2858 55.2199 66.2858H70.78C72.3773 66.2858 73.3301 64.5055 72.4441 63.1764L64.664 51.5063Z" fill="white" stroke="#14181D" stroke-width="3" stroke-linecap="round"/>
<path d="M14.8941 136.427L15.0132 134.945L14.8941 136.427L29.2073 137.577C30.8139 137.706 31.9054 135.979 31.0995 134.583L22.9472 120.463C22.1414 119.067 20.1001 119.149 19.4086 120.605L13.2477 133.576L14.6026 134.219L13.2477 133.576C12.6469 134.84 13.4983 136.315 14.8941 136.427Z" fill="white" stroke="#14181D" stroke-width="3" stroke-linecap="round"/>
<path d="M110.073 131.07L108.73 131.708L110.073 131.07L103.912 118.099C103.221 116.643 101.179 116.562 100.374 117.957L92.2213 132.077C91.4154 133.473 92.507 135.2 94.1135 135.071L108.427 133.921L108.307 132.426L108.427 133.921C109.822 133.809 110.674 132.334 110.073 131.07Z" fill="white" stroke="#14181D" stroke-width="3" stroke-linecap="round"/>
<path d="M124 70.1021V60.6771C124 56.8095 122.4 53.0997 119.55 50.3608C116.7 47.6219 112.832 46.0774 108.796 46.0658L98.9464 46M124 136.918V148.389C124 152.264 122.393 155.98 119.533 158.72C116.673 161.461 112.795 163 108.75 163H98.9464M29.2321 46L17.2043 46.0731C13.1676 46.0847 9.30048 47.6292 6.45043 50.3681C3.60039 53.107 1.99998 56.8168 2 60.6844L2 70.1021M29.2321 163H17.25C13.2054 163 9.32655 161.461 6.46662 158.72C3.60669 155.98 2 152.264 2 148.389V136.918" stroke="white" stroke-width="3" stroke-linecap="round" stroke-linejoin="round"/>
</svg>
