<svg width="114" height="210" viewBox="0 0 114 210" fill="none" xmlns="http://www.w3.org/2000/svg">
<rect x="84.2449" y="120.529" width="40.08" height="40.08" rx="3" transform="rotate(45 84.2449 120.529)" fill="#1A2026" stroke="#3975FF" stroke-width="2"/>
<path d="M38.017 191.964H26.5059V77.0469H70.9059V191.964H58.5725L48.7059 125.604L38.017 191.964Z" fill="#14181D" stroke="white" stroke-width="2"/>
<path d="M61.2309 56.1528H57.8127H40.135H37.0994C31.2169 56.1528 25.8045 59.3653 22.989 64.5278L6.00401 95.6719C5.28739 96.986 5.57342 98.6205 6.69372 99.6134L25.9396 116.67C27.2667 117.846 29.2963 117.725 30.4746 116.4L34.2593 112.143C35.3581 110.907 35.3389 109.039 34.215 107.826L23.6596 96.4325C22.7066 95.4038 22.531 93.8763 23.2257 92.6584L26.9809 86.0755C27.3368 85.4516 27.9999 85.0665 28.7181 85.0665H69.5208C70.232 85.0665 70.8897 85.4442 71.2482 86.0584L75.0801 92.6243C75.7995 93.8571 75.6191 95.4165 74.6371 96.4525L63.8819 107.8C62.7249 109.021 62.7053 110.926 63.8369 112.17L67.7544 116.478C68.9285 117.769 70.9187 117.887 72.2377 116.744L91.9967 99.6279C93.1472 98.6313 93.4403 96.9645 92.6987 95.6354L75.2664 64.3921C72.4283 59.3055 67.0578 56.1528 61.2309 56.1528Z" fill="#14181D" stroke="white" stroke-width="2"/>
<path d="M78.0469 208.941H61.1528C60.0483 208.941 59.1528 208.045 59.1528 206.941V191.964H70.7607L79.4917 201.085C79.848 201.457 80.0469 201.953 80.0469 202.468V206.941C80.0469 208.045 79.1515 208.941 78.0469 208.941Z" stroke="white" stroke-width="2"/>
<path d="M19.3647 208.941H36.2588C37.3634 208.941 38.2588 208.045 38.2588 206.941V191.964H26.6509L17.9199 201.085C17.5636 201.457 17.3647 201.953 17.3647 202.468V206.941C17.3647 208.045 18.2601 208.941 19.3647 208.941Z" stroke="white" stroke-width="2"/>
<path d="M37.9529 38.8706H59.4588V49.6235C59.4588 55.5622 54.6445 60.3765 48.7058 60.3765C42.7671 60.3765 37.9529 55.5622 37.9529 49.6235V38.8706Z" fill="#14181D" stroke="white" stroke-width="2"/>
<path d="M41.04 33.9483C37.5027 33.9483 35.4286 37.8828 37.3498 40.7881H59.9828L60.3663 37.4554C61.3905 28.5535 49.8673 24.1579 44.7026 31.4804L44.0698 32.3776C43.3752 33.3625 42.2452 33.9483 41.04 33.9483Z" fill="#14181D" stroke="white" stroke-width="2"/>
<rect x="29.1177" y="74.4355" width="40.4823" height="15.6706" fill="#14181D"/>
<path d="M80.0471 158.336V139.406C80.0471 138.997 80.5107 138.761 80.8412 139.001L93.8558 148.467C94.1304 148.666 94.1304 149.076 93.8558 149.275L80.8412 158.74C80.5107 158.981 80.0471 158.745 80.0471 158.336Z" fill="#3975FF"/>
<path d="M10.1273 44.0556C8.15124 42.8253 5.51683 42.8931 3.60185 44.3067L3.60182 44.3068C1.60582 45.7802 0.81386 48.467 2.17841 50.7278C3.26047 52.5207 4.89731 54.9738 6.93415 57.2172C8.95243 59.4401 11.4722 61.5792 14.3439 62.5702C19.3251 64.2892 23.0405 64.1683 27.1398 62.5471C29.9475 61.4368 32.1211 58.9747 33.2497 57.4981L33.2498 57.4981C34.145 56.3267 34.5 54.946 34.5 53.6262V45.8675C34.5 43.5663 32.5165 41.9022 30.3284 41.9022C29.7839 41.9022 29.2521 42.0052 28.7604 42.1955C28.0742 40.8187 26.5844 39.9299 24.9852 39.9299C24.4408 39.9299 23.909 40.033 23.4172 40.2232C22.731 38.8465 21.2412 37.9577 19.6421 37.9577C19.241 37.9577 18.8468 38.0136 18.4705 38.1191V36.0063C18.4705 33.7051 16.487 32.041 14.2989 32.041C12.1108 32.041 10.1273 33.7051 10.1273 36.0063V44.0556Z" fill="#3975FF" stroke="#14181D" stroke-width="3" stroke-linecap="round" stroke-linejoin="round"/>
<path d="M3 29.7051H26" stroke="#14181D" stroke-width="5" stroke-linecap="round" stroke-linejoin="round"/>
<path d="M7 33.5409L3 29.2253L6.9997 24.9097" stroke="#14181D" stroke-width="6" stroke-linecap="round" stroke-linejoin="round"/>
<path d="M23 24.9097L26 29.2253L23 33.5409" stroke="#14181D" stroke-width="6" stroke-linecap="round" stroke-linejoin="round"/>
<path d="M3 29.2256H26" stroke="#3975FF" stroke-linecap="round" stroke-linejoin="round"/>
<path d="M7 33.5409L3 29.2253L6.9997 24.9097" stroke="#3975FF" stroke-linecap="round" stroke-linejoin="round"/>
<path d="M23 24.9097L26 29.2253L23 33.5409" stroke="#3975FF" stroke-linecap="round" stroke-linejoin="round"/>
</svg>
