<svg width="128" height="209" viewBox="0 0 128 209" fill="none" xmlns="http://www.w3.org/2000/svg">
<path d="M2.36035 98.8117V85.4274L62.866 61.2114L122.272 85.4274V101.762" stroke="white" stroke-width="3"/>
<rect x="36.1755" y="49.7437" width="36.7662" height="36.7662" rx="2.5" fill="white" stroke="#14181D"/>
<circle cx="65.2128" cy="90.5827" r="21.9562" fill="#3975FF" stroke="#14181D"/>
<circle cx="87.6042" cy="81.1086" r="10.1218" fill="#1A2026" stroke="white"/>
<rect x="114.88" y="28.6693" width="13.8741" height="120.281" rx="6.93707" transform="rotate(26.1782 114.88 28.6693)" fill="white" stroke="#14181D"/>
<path d="M14.643 64.7274L25.9122 116.958C26.0775 117.725 27.0198 118.011 27.5839 117.467L64.0838 82.261C64.618 81.7457 64.4244 80.8485 63.7253 80.5993L15.9562 63.5746C15.2179 63.3114 14.4777 63.9613 14.643 64.7274Z" fill="white" stroke="#14181D"/>
<path d="M62.866 107.795L124.632 84.2476L122.672 151.2C122.615 153.134 121.449 154.861 119.676 155.636L63.4035 180.23L3.11152 155.636C1.22991 154.869 0 153.039 0 151.007V84.2476L62.866 107.795Z" fill="#1A2026"/>
<mask id="path-8-inside-1_140_40" fill="white">
<path d="M62.866 107.795L124.051 84.3005C124.117 84.275 124.188 84.3251 124.187 84.3962L122.652 151.177C122.608 153.122 121.439 154.865 119.656 155.644L63.4035 180.229L3.13582 155.646C1.24203 154.873 0.00967447 153.025 0.0244255 150.98L0.504697 84.3906C0.505199 84.321 0.574895 84.2732 0.640018 84.2978L62.866 107.795Z"/>
</mask>
<path d="M64.9035 180.218L64.366 107.784L61.3661 107.806L61.9036 180.24L64.9035 180.218ZM124.051 84.3005L125.126 87.1012L125.126 87.1012L124.051 84.3005ZM62.866 107.795L61.8063 110.601L62.875 111.005L63.9414 110.595L62.866 107.795ZM119.656 155.644L120.857 158.393L119.656 155.644ZM63.4035 180.229L62.2704 183.007C63.0206 183.313 63.8626 183.303 64.605 182.978L63.4035 180.229ZM122.652 151.177L125.652 151.246L125.652 151.246L122.652 151.177ZM124.187 84.3962L127.186 84.4651L127.186 84.465L124.187 84.3962ZM3.13582 155.646L2.00273 158.423L2.00273 158.423L3.13582 155.646ZM0.0244255 150.98L-2.9755 150.958L0.0244255 150.98ZM0.504697 84.3906L3.50462 84.4122L3.50462 84.4122L0.504697 84.3906ZM0.640018 84.2978L-0.419763 87.1044L-0.419763 87.1044L0.640018 84.2978ZM122.975 81.4999L61.7906 104.994L63.9414 110.595L125.126 87.1012L122.975 81.4999ZM118.455 152.895L62.2021 177.48L64.605 182.978L120.857 158.393L118.455 152.895ZM125.652 151.246L127.186 84.4651L121.187 84.3273L119.653 151.108L125.652 151.246ZM64.5366 177.452L4.2689 152.868L2.00273 158.423L62.2704 183.007L64.5366 177.452ZM3.02435 151.002L3.50462 84.4122L-2.49523 84.369L-2.9755 150.958L3.02435 151.002ZM63.9258 104.988L1.6998 81.4912L-0.419763 87.1044L61.8063 110.601L63.9258 104.988ZM120.857 158.393C123.71 157.146 125.58 154.358 125.652 151.246L119.653 151.108C119.635 151.886 119.168 152.583 118.455 152.895L120.857 158.393ZM125.126 87.1012C123.2 87.8408 121.14 86.3894 121.187 84.3273L127.186 84.465C127.237 82.2607 125.034 80.7093 122.975 81.4999L125.126 87.1012ZM4.2689 152.868C3.51139 152.559 3.01845 151.82 3.02435 151.002L-2.9755 150.958C-2.9991 154.231 -1.02732 157.187 2.00273 158.423L4.2689 152.868ZM3.50462 84.4122C3.49006 86.4311 1.46868 87.8174 -0.419763 87.1044L1.6998 81.4912C-0.318894 80.7289 -2.47966 82.2109 -2.49523 84.369L3.50462 84.4122Z" fill="white" mask="url(#path-8-inside-1_140_40)"/>
</svg>
