<svg width="100" height="115" viewBox="0 0 100 115" fill="none" xmlns="http://www.w3.org/2000/svg">
<path d="M71.1716 36.4138L48.5402 49.1845C48.3831 49.2731 48.2859 49.4395 48.2859 49.6199V74.5732C48.2859 74.9557 48.6979 75.1966 49.0312 75.0089L72.0269 62.0613C72.1865 61.9714 72.2842 61.8015 72.2815 61.6183L71.9173 36.8419C71.9117 36.4625 71.5021 36.2273 71.1716 36.4138Z" fill="#3975FF"/>
<path d="M86.2145 48.8573C86.2145 69.3633 69.9692 85.9287 50.0002 85.9287C30.0312 85.9287 13.7859 69.3633 13.7859 48.8573C13.7859 28.3514 30.0312 11.7859 50.0002 11.7859C69.9692 11.7859 86.2145 28.3514 86.2145 48.8573Z" stroke="white" stroke-width="3"/>
<path d="M49.1903 24.5732L29.3299 36.9482C29.0369 37.1308 28.8588 37.4517 28.8588 37.7969V62.0361M49.1903 24.5732L71.6809 37.2418M49.1903 24.5732V13.7144M71.6809 37.2418V62.0361M71.6809 37.2418L49.6995 49.6236C49.3849 49.8008 49.1903 50.1338 49.1903 50.4949V75.4286M71.6809 62.0361L49.1903 75.4286M71.6809 62.0361L80.8571 67.8275M49.1903 75.4286L28.8588 62.0361M28.8588 62.0361L19.1428 67.8275" stroke="white" stroke-width="3" stroke-linecap="round"/>
<path d="M48.3359 6.64916L49.5839 7.48122L48.3359 6.64917L42.413 15.5335C41.5269 16.8626 42.4797 18.6429 44.0771 18.6429H55.9228C57.5202 18.6429 58.473 16.8626 57.587 15.5335L51.6641 6.64917L50.416 7.48122L51.6641 6.64916C50.8724 5.4617 49.1275 5.4617 48.3359 6.64916Z" fill="white" stroke="#14181D" stroke-width="3" stroke-linecap="round"/>
<path d="M25.0732 71.7304L18.8612 60.9709C18.0553 59.5751 16.0141 59.657 15.3226 61.1128L10.628 70.9962C10.0272 72.261 10.8786 73.7358 12.2744 73.8479L23.181 74.7239C24.7875 74.853 25.879 73.1261 25.0732 71.7304Z" fill="white" stroke="#14181D" stroke-width="3" stroke-linecap="round"/>
<path d="M79.0303 58.999L72.8183 69.7585C72.0125 71.1542 73.104 72.8811 74.7105 72.752L85.6171 71.876C87.0129 71.7639 87.8643 70.2891 87.2635 69.0243L82.5689 59.1409C81.8774 57.6851 79.8361 57.6032 79.0303 58.999Z" fill="white" stroke="#14181D" stroke-width="3" stroke-linecap="round"/>
<path d="M98 20.9665V13.5497C98 10.5062 96.7407 7.58689 94.498 5.43159C92.2554 3.27629 89.2124 2.06087 86.036 2.05174L78.2857 2M98 73.5456V82.572C98 85.6215 96.7357 88.546 94.4853 90.7023C92.2348 92.8586 89.1826 94.07 86 94.07H78.2857M23.4286 2L13.964 2.05749C10.7876 2.06662 7.74464 3.28204 5.50198 5.43734C3.25932 7.59264 1.99999 10.512 2 13.5555L2 20.9665M23.4286 94.07H14C10.8174 94.07 7.76515 92.8586 5.51472 90.7023C3.26428 88.546 2 85.6215 2 82.572V73.5456" stroke="white" stroke-width="3" stroke-linecap="round" stroke-linejoin="round"/>
</svg>
