<svg width="112" height="116" viewBox="0 0 112 116" fill="none" xmlns="http://www.w3.org/2000/svg">
<rect x="2" y="1" width="11" height="109" rx="5.5" stroke="white" stroke-width="2"/>
<rect x="88" y="1" width="11" height="109" rx="5.5" stroke="white" stroke-width="2"/>
<path d="M2.59131 14H98.3978" stroke="#14181D" stroke-width="5" stroke-linecap="square"/>
<path d="M2.59131 25.9497H98.3978" stroke="#14181D" stroke-width="5" stroke-linecap="square"/>
<path d="M2.59131 37.8999H98.3978" stroke="#14181D" stroke-width="5" stroke-linecap="square"/>
<path d="M2.59131 49.8501H98.3978" stroke="#14181D" stroke-width="5" stroke-linecap="square"/>
<path d="M2.59131 61.8H98.3978" stroke="#14181D" stroke-width="5" stroke-linecap="square"/>
<path d="M2.59131 73.75H98.3978" stroke="#14181D" stroke-width="5" stroke-linecap="square"/>
<path d="M2.59131 85.7002H98.3978" stroke="#14181D" stroke-width="5" stroke-linecap="square"/>
<path d="M2.59131 97.6499H98.3978" stroke="#14181D" stroke-width="5" stroke-linecap="square"/>
<path d="M2.59131 14H98.3978" stroke="white" stroke-width="2" stroke-linecap="square"/>
<path d="M2.59131 25.9497H98.3978" stroke="white" stroke-width="2" stroke-linecap="square"/>
<path d="M2.59131 37.8999H98.3978" stroke="white" stroke-width="2" stroke-linecap="square"/>
<path d="M2.59131 49.8501H98.3978" stroke="white" stroke-width="2" stroke-linecap="square"/>
<path d="M2.59131 61.8H98.3978" stroke="white" stroke-width="2" stroke-linecap="square"/>
<path d="M2.59131 73.75H98.3978" stroke="white" stroke-width="2" stroke-linecap="square"/>
<path d="M2.59131 85.7002H98.3978" stroke="white" stroke-width="2" stroke-linecap="square"/>
<path d="M2.59131 97.6499H98.3978" stroke="white" stroke-width="2" stroke-linecap="square"/>
<rect x="14" y="15" width="73" height="82" fill="#14181D"/>
<path d="M32.9375 72.673V37.7436C32.9375 34.4957 36.6038 32.6019 39.2525 34.4816L63.8618 51.9463C66.1085 53.5407 66.1085 56.8759 63.8618 58.4704L39.2525 75.9351C36.6038 77.8148 32.9375 75.9209 32.9375 72.673Z" fill="#3975FF" stroke="#1A2026" stroke-width="4" stroke-linecap="round"/>
<circle cx="89.0837" cy="92.9167" r="21.9167" fill="white" stroke="#14181D" stroke-width="2"/>
<path d="M89.5267 100.346C89.5267 96.7978 89.5267 85.2656 89.5267 80.8301M89.5267 80.8301L80.6558 89.701M89.5267 80.8301L98.3977 89.701" stroke="#14181D" stroke-width="2" stroke-linecap="round"/>
<path d="M80.0645 102.12V104.781H98.3978V102.12" stroke="#14181D" stroke-width="2" stroke-linecap="round"/>
</svg>
