<svg width="126" height="113" viewBox="0 0 126 113" fill="none" xmlns="http://www.w3.org/2000/svg">
<path d="M32.17 40.19H16.165L13.415 48H6.87L20.565 9.72H27.825L41.52 48H34.92L32.17 40.19ZM30.41 35.075L24.195 17.31L17.925 35.075H30.41ZM49.3446 9.775V48H43.0746V9.775H49.3446Z" fill="#3975FF"/>
<path d="M84.5925 4.65747V14.9218H76.6851V22.7315" stroke="white" stroke-width="2" stroke-linecap="round"/>
<path d="M63.1294 37.006H72.2233L79.4984 44.1688L88.8196 35.1575L99.2775 45.3241" stroke="white" stroke-width="2" stroke-linecap="round"/>
<path d="M117.352 23.8613L108.873 33.21M108.873 33.21L104.633 28.7694L99.2778 34.3786M108.873 33.21L113.112 37.4169L117.352 33.6774" stroke="white" stroke-width="2" stroke-linecap="round"/>
<path d="M123 48.7131H117.578L109.444 57.7502" stroke="white" stroke-width="2" stroke-linecap="round"/>
<path d="M62 44.1946H68.3377L83.3603 58.8798H98.1481" stroke="white" stroke-width="2" stroke-linecap="round"/>
<path d="M78.9445 54.3613L74.0922 60.0095L68.7778 55.3436" stroke="white" stroke-width="2" stroke-linecap="round"/>
<path d="M82.3335 65.6575H91.5319L95.8891 71.3056" stroke="white" stroke-width="2" stroke-linecap="round"/>
<path d="M87.9814 47.9996L92.9996 53.2316H105.545L111.704 47.0483L104.633 39.676" stroke="white" stroke-width="2" stroke-linecap="round"/>
<path d="M68.7778 20.4724V31.7687H82.0755L90.2408 23.6999L87.9079 21.3946" stroke="white" stroke-width="2" stroke-linecap="round"/>
<path d="M104.926 12.5649L96.86 20.9242M96.86 20.9242L92.5 16.4057V12.5649H96.424M96.86 20.9242L100.784 24.9909L104.272 21.3761" stroke="white" stroke-width="2" stroke-linecap="round"/>
<path d="M62 67.1256V8.83749L66.6388 4.65747H97.4867L123 29.9698V55.7466L107.228 71.3056H66.6388L62 67.1256Z" stroke="white" stroke-width="2" stroke-linecap="round"/>
<circle cx="68.7778" cy="19.3428" r="1.75926" fill="white" stroke="#3975FF"/>
<circle cx="76.685" cy="23.8613" r="1.75926" fill="white" stroke="#3975FF"/>
<circle cx="86.852" cy="20.4724" r="1.75926" fill="white" stroke="#3975FF"/>
<path d="M112.977 65.6575L117.352 69.9196M117.352 69.9196V80.2385L108.372 88.9871H99.2777M117.352 69.9196L106.3 80.6872H98.8172M86.9597 85.8466L90.1831 88.9871H99.2777M86.4992 75.9764L91.3343 80.6872H98.8172M98.8172 80.6872V75.9764M99.2777 88.9871L90.7587 97.2871H81.2036" stroke="white" stroke-width="2" stroke-linecap="round"/>
<path d="M72.1665 71.3057V75.9183H76.685L80.0739 79.2131" stroke="white" stroke-width="2" stroke-linecap="round"/>
<circle cx="98.1479" cy="12.5649" r="1.75926" fill="white" stroke="#3975FF"/>
<circle cx="106.056" cy="19.3428" r="1.75926" fill="white" stroke="#3975FF"/>
<circle cx="98.1479" cy="36.2871" r="1.75926" fill="white" stroke="#3975FF"/>
<circle cx="103.796" cy="38.5464" r="1.75926" fill="white" stroke="#3975FF"/>
<circle cx="100.407" cy="46.4538" r="1.75926" fill="white" stroke="#3975FF"/>
<circle cx="86.852" cy="46.4538" r="1.75926" fill="white" stroke="#3975FF"/>
<circle cx="100.407" cy="58.8799" r="1.75926" fill="white" stroke="#3975FF"/>
<circle cx="67.6479" cy="54.3613" r="1.75926" fill="white" stroke="#3975FF"/>
<circle cx="80.0742" cy="65.6575" r="1.75926" fill="white" stroke="#3975FF"/>
<circle cx="81.2036" cy="80.3428" r="1.75926" fill="white" stroke="#3975FF"/>
<circle cx="86.852" cy="75.8242" r="1.75926" fill="white" stroke="#3975FF"/>
<circle cx="99.2778" cy="75.8242" r="1.75926" fill="white" stroke="#3975FF"/>
<circle cx="85.7222" cy="83.7317" r="1.75926" fill="white" stroke="#3975FF"/>
<path d="M8.27485 60.0093L0.999908 67.4596M0.999908 67.4596V80.4097L18.1448 91.3892H29.0437M0.999908 67.4596L20.6281 80.9728H29.5956M43.8056 87.4478L39.9427 91.3892H29.0437M44.3574 75.0608L38.563 80.9728H29.5956M29.5956 80.9728V75.0608M29.0437 91.3892L39.2529 101.806H50.7036" stroke="white" stroke-width="2" stroke-linecap="round"/>
<path d="M52 60H26L17 69" stroke="white" stroke-width="2" stroke-linecap="round"/>
<path d="M62 72.4353L62 74.2685H56.1905L51.8333 78.0835" stroke="white" stroke-width="2" stroke-linecap="round"/>
<circle cx="2.25926" cy="2.25926" r="1.75926" transform="matrix(-1 0 0 1 54.0928 75.3889)" fill="white" stroke="#3975FF"/>
<circle cx="2.25926" cy="2.25926" r="1.75926" transform="matrix(-1 0 0 1 54.0928 99.1111)" fill="white" stroke="#3975FF"/>
<circle cx="2.25926" cy="2.25926" r="1.75926" transform="matrix(-1 0 0 1 47.3149 72)" fill="white" stroke="#3975FF"/>
<circle cx="2.25926" cy="2.25926" r="1.75926" transform="matrix(-1 0 0 1 31.5 72)" fill="white" stroke="#3975FF"/>
<circle cx="2.25926" cy="2.25926" r="1.75926" transform="matrix(-1 0 0 1 46.1851 84.426)" fill="white" stroke="#3975FF"/>
<circle cx="80.0742" cy="97.2871" r="1.75926" fill="white" stroke="#3975FF"/>
<circle cx="108.315" cy="60.0093" r="1.75926" fill="white" stroke="#3975FF"/>
<circle cx="118.481" cy="32.8982" r="1.75926" fill="white" stroke="#3975FF"/>
</svg>
