<svg width="76" height="76" viewBox="0 0 76 76" fill="none" xmlns="http://www.w3.org/2000/svg">
<path d="M42.5 51.5H32.5C31.9477 51.5 31.5 51.0523 31.5 50.5V32C31.5 31.4477 31.0523 31 30.5 31H23.2318C22.3682 31 21.9107 29.9789 22.4855 29.3344L36.7648 13.3243C37.1585 12.8829 37.8472 12.8778 38.2474 13.3133L52.9593 29.3234C53.5484 29.9645 53.0937 31 52.223 31H44.5C43.9477 31 43.5 31.4477 43.5 32V50.5C43.5 51.0523 43.0523 51.5 42.5 51.5Z" stroke="white" stroke-width="2"/>
<path d="M15.5 53.5V62.5C15.5 63.0523 15.9477 63.5 16.5 63.5H59C59.5523 63.5 60 63.0523 60 62.5V53.5" stroke="white" stroke-width="2" stroke-linecap="round"/>
</svg>
